<svg width="147" height="81" viewBox="0 0 147 81" fill="none" xmlns="http://www.w3.org/2000/svg">
<path fill-rule="evenodd" clip-rule="evenodd" d="M63.0451 16.2433C63.0451 16.4364 64.1948 19.0002 65.6001 21.9406C67.0053 24.8814 68.1551 27.3313 68.1551 27.385C68.1551 27.4386 69.2807 29.8436 70.6568 32.7289C74.3137 40.3972 74.4309 39.6176 69.6231 39.6176C65.803 39.6176 65.5147 39.6698 64.6712 40.5136C64.1784 41.0064 63.7751 41.7681 63.7751 42.2069C63.7751 42.6639 67.3853 48.0447 72.2343 54.8158C79.1744 64.5062 80.8461 66.6276 81.5418 66.6276C82.0083 66.6276 82.3901 66.5641 82.3901 66.4867C82.3901 66.4093 81.3027 64.0686 79.9738 61.2854C77.1728 55.4199 72.5351 45.4028 72.5351 45.2185C72.5351 45.1491 74.3491 45.0926 76.5665 45.0926C80.3603 45.0926 80.6512 45.0396 81.494 44.1965C83.142 42.5489 83.423 43.0887 74.344 30.4667C70.6718 25.3618 67.0907 20.3638 66.3863 19.3601C64.2434 16.3083 63.0451 15.1903 63.0451 16.2433ZM23.3444 43.1701L23.4426 51.4801H32.5676H41.6926V49.4726V47.4651L35.1226 47.4001L28.5526 47.3355L28.4394 46.0313L28.3259 44.7276H34.7554H41.1852L41.0739 42.9938L40.9626 41.2601L34.6663 41.1601L28.3701 41.0604V39.9822V38.904L35.0313 38.8047L41.6926 38.7051V36.8801V35.0551L32.4694 34.9576L23.2462 34.8602L23.3444 43.1701ZM43.4194 43.1763L43.5176 51.4801L45.9813 51.5881L48.4451 51.6958V45.4744C48.4451 42.0525 48.5772 39.2526 48.7393 39.2526C48.901 39.2526 50.8658 41.8554 53.1054 45.0364C55.345 48.2177 57.4124 51.0154 57.6997 51.2538C58.053 51.5469 59.5637 51.6538 62.3673 51.5837L66.5126 51.4801L66.6162 50.3851C66.6951 49.5514 66.2377 48.5995 64.7 46.3963C63.1327 44.1512 62.6801 43.1989 62.6801 42.1477C62.6801 40.4954 63.6163 39.25 65.28 38.6901C66.4312 38.3025 66.5126 38.1685 66.5126 36.6651V35.0551H63.9576H61.4026V40.8951C61.4026 44.5162 61.2639 46.7515 61.0376 46.7785C60.8368 46.8022 59.9309 45.7346 59.0246 44.406C58.1179 43.077 56.244 40.3884 54.8603 38.4313L52.3444 34.8726H47.833H43.3212L43.4194 43.1763ZM79.8351 35.4128C79.8351 35.7099 80.6563 37.1414 81.6601 38.5941C84.2647 42.3631 84.1559 44.3629 81.2666 45.8372L79.8026 46.584L79.9099 49.032L80.0176 51.4801L88.9601 51.4753C98.7107 51.4702 99.302 51.3644 100.79 49.3547C101.48 48.4217 101.553 47.8271 101.553 43.0851C101.553 34.8937 101.599 34.9233 88.6863 34.893C81.1053 34.8755 79.8351 34.9499 79.8351 35.4128ZM103.804 35.116C103.455 35.4646 103.513 50.6581 103.865 51.2129C104.092 51.5706 106.222 51.6534 113.258 51.5779L122.358 51.4801L122.468 49.5638C122.529 48.5101 122.529 47.6158 122.468 47.5771C122.407 47.5384 119.319 47.4154 115.605 47.3034L108.853 47.1001V46.0051V44.9101L115.24 44.7276L121.628 44.5451V42.9026V41.2601L115.24 41.0776L108.853 40.8951V39.9826V39.0701L115.514 38.9704L122.175 38.8711V36.8717V34.8726H113.111C108.125 34.8726 103.937 34.9821 103.804 35.116ZM84.9451 43.3081V47.3636L90.2252 47.2271C96.5627 47.0632 96.5955 47.0417 96.6134 43.0504C96.6302 39.3062 96.5382 39.2526 90.1175 39.2526H84.9451V43.3081Z" fill="white"/>
</svg>
