<svg width="64" height="64" viewBox="0 0 64 64" fill="none" xmlns="http://www.w3.org/2000/svg">
<rect width="64" height="64" rx="8" fill="#1D87C5"/>
<path d="M33.9162 13.9727C41.2812 13.9727 47.2036 20.2099 47.2036 27.8773C47.2036 33.4391 44.1095 38.1865 39.6108 40.4112V49.7273H26.3234V43.7682H24.4252C22.3182 43.7682 20.6288 42.0003 20.6288 39.7955V33.8364H17.7815C16.9842 33.8364 16.5287 32.8432 16.9842 32.2274L20.6288 27.2019C20.9895 19.8325 26.76 13.9727 33.9162 13.9727ZM33.9162 10C25.2035 10 17.9903 16.7934 16.9463 25.6923L13.9851 29.8636H13.9281L13.8902 29.9232C12.8462 31.4329 12.7133 33.4192 13.5295 35.0679C14.2129 36.4385 15.4277 37.392 16.8324 37.6899V39.7955C16.8324 43.4702 19.2621 46.5888 22.527 47.4827V53.7H43.4072V42.775C48.1527 39.4578 51 33.9555 51 27.8773C51 18.005 43.3313 10 33.9162 10ZM41.509 25.5532C41.509 28.6122 38.9274 31.0555 35.0172 34.77L33.9162 35.8227L32.8152 34.77C28.9049 31.0555 26.3234 28.6122 26.3234 25.5532C26.3234 23.1696 28.1457 21.2031 30.4235 21.1832H30.4994C31.8092 21.1832 33.062 21.799 33.9162 22.8319C34.7704 21.799 36.0232 21.1832 37.333 21.1832C39.6108 21.1634 41.509 23.0901 41.509 25.4738V25.5532Z" fill="white"/>
</svg>
