<svg width="64" height="64" viewBox="0 0 64 64" fill="none" xmlns="http://www.w3.org/2000/svg">
<rect width="64" height="64" rx="8" fill="#1D87C5"/>
<path d="M32 26.4261C30.6257 26.4261 29.3077 27.0179 28.3359 28.0714C27.3641 29.1248 26.8182 30.5537 26.8182 32.0435C26.8182 33.5333 27.3641 34.9621 28.3359 36.0156C29.3077 37.069 30.6257 37.6609 32 37.6609C33.3743 37.6609 34.6923 37.069 35.6641 36.0156C36.6359 34.9621 37.1818 33.5333 37.1818 32.0435C37.1818 30.5537 36.6359 29.1248 35.6641 28.0714C34.6923 27.0179 33.3743 26.4261 32 26.4261ZM32 41.4058C29.7095 41.4058 27.5128 40.4194 25.8932 38.6636C24.2735 36.9079 23.3636 34.5265 23.3636 32.0435C23.3636 29.5604 24.2735 27.1791 25.8932 25.4233C27.5128 23.6675 29.7095 22.6812 32 22.6812C34.2905 22.6812 36.4872 23.6675 38.1068 25.4233C39.7265 27.1791 40.6364 29.5604 40.6364 32.0435C40.6364 34.5265 39.7265 36.9079 38.1068 38.6636C36.4872 40.4194 34.2905 41.4058 32 41.4058ZM32 18C23.3636 18 15.9882 23.8234 13 32.0435C15.9882 40.2636 23.3636 46.087 32 46.087C40.6364 46.087 48.0118 40.2636 51 32.0435C48.0118 23.8234 40.6364 18 32 18Z" fill="white"/>
</svg>
