<svg width="64" height="64" viewBox="0 0 64 64" fill="none" xmlns="http://www.w3.org/2000/svg">
<rect width="64" height="64" rx="8" fill="#1D87C5"/>
<path d="M32 13C29.5049 13 27.0342 13.4914 24.729 14.4463C22.4238 15.4011 20.3293 16.8007 18.565 18.565C15.0018 22.1282 13 26.9609 13 32C13 37.0391 15.0018 41.8718 18.565 45.435C20.3293 47.1993 22.4238 48.5989 24.729 49.5537C27.0342 50.5086 29.5049 51 32 51C37.0391 51 41.8718 48.9982 45.435 45.435C48.9982 41.8718 51 37.0391 51 32C51 29.796 50.601 27.611 49.841 25.559L46.801 28.599C47.067 29.72 47.2 30.86 47.2 32C47.2 36.0313 45.5986 39.8975 42.748 42.748C39.8975 45.5986 36.0313 47.2 32 47.2C27.9687 47.2 24.1025 45.5986 21.252 42.748C18.4014 39.8975 16.8 36.0313 16.8 32C16.8 27.9687 18.4014 24.1025 21.252 21.252C24.1025 18.4014 27.9687 16.8 32 16.8C33.14 16.8 34.28 16.933 35.401 17.199L38.46 14.14C36.389 13.399 34.204 13 32 13ZM45.3 13L37.7 20.6V23.45L32.855 28.295C32.57 28.2 32.285 28.2 32 28.2C30.9922 28.2 30.0256 28.6004 29.313 29.313C28.6004 30.0256 28.2 30.9922 28.2 32C28.2 33.0078 28.6004 33.9744 29.313 34.687C30.0256 35.3996 30.9922 35.8 32 35.8C33.0078 35.8 33.9744 35.3996 34.687 34.687C35.3996 33.9744 35.8 33.0078 35.8 32C35.8 31.715 35.8 31.43 35.705 31.145L40.55 26.3H43.4L51 18.7H45.3V13ZM32 20.6C28.9765 20.6 26.0769 21.8011 23.939 23.939C21.8011 26.0769 20.6 28.9765 20.6 32C20.6 35.0235 21.8011 37.9231 23.939 40.061C26.0769 42.1989 28.9765 43.4 32 43.4C35.0235 43.4 37.9231 42.1989 40.061 40.061C42.1989 37.9231 43.4 35.0235 43.4 32H39.6C39.6 34.0156 38.7993 35.9487 37.374 37.374C35.9487 38.7993 34.0156 39.6 32 39.6C29.9844 39.6 28.0513 38.7993 26.626 37.374C25.2007 35.9487 24.4 34.0156 24.4 32C24.4 29.9844 25.2007 28.0513 26.626 26.626C28.0513 25.2007 29.9844 24.4 32 24.4V20.6Z" fill="white"/>
</svg>
