<svg width="151" height="83" viewBox="0 0 151 83" fill="none" xmlns="http://www.w3.org/2000/svg">
<path fill-rule="evenodd" clip-rule="evenodd" d="M22.4499 24.4759C19.3831 25.026 16.4938 26.5575 15.2289 28.3035C14.6244 29.1375 14.1301 30.0503 14.1301 30.3315C14.1301 30.6128 13.9344 31.1561 13.6951 31.5394C12.5086 33.4391 16.8515 39.7961 22.0903 43.8274C22.7304 44.3201 23.5134 45.6548 24.185 47.3993C26.0544 52.2536 30.2218 57.6705 33.7865 59.8789C34.8039 60.5093 34.9123 60.513 35.3375 59.931C35.8906 59.175 35.6311 57.8535 34.1795 54.0315C32.7065 50.1533 31.9756 49.134 27.6759 44.9636C25.5883 42.939 23.8801 41.1563 23.8801 41.0025C23.8801 40.4029 26.0008 38.7746 27.0676 38.5549C27.6864 38.4278 29.8854 38.1645 31.9539 37.9699C36.2926 37.5615 38.9345 36.9319 41.9739 35.5819C43.9239 34.7156 44.1301 34.5135 44.1301 33.4706C44.1301 30.3225 39.6099 26.4476 34.1926 24.9521C31.787 24.288 25.0269 24.0139 22.4499 24.4759ZM23.0008 27.6064C20.4024 28.5743 18.6253 30.9124 18.6335 33.3518C18.6373 34.4434 20.1751 37.3496 21.7651 39.27L22.6966 40.395L24.0219 38.8545C25.7041 36.8996 27.0369 36.5505 33.6871 36.3233C39.2821 36.132 40.3801 35.8106 40.3801 34.3631C40.3801 32.1529 38.3491 29.9048 34.9426 28.3444C33.0073 27.4579 32.1155 27.2966 28.5676 27.1916C25.6471 27.105 24.0215 27.2261 23.0008 27.6064ZM58.7334 28.1734C56.1069 29.0104 55.0051 30.4515 55.0051 33.051C55.0051 34.9485 56.3923 36.6274 59.198 38.1248C62.7268 40.008 63.5971 41.334 62.3885 42.9863C61.7146 43.908 58.988 44.1368 56.7864 43.4565L55.0051 42.906V44.3621C55.0051 46.0991 55.5459 46.3271 59.6806 46.3346C64.1754 46.3425 66.6256 44.5331 66.6286 41.2028C66.6305 39.1939 65.7211 37.8604 63.3523 36.399C58.2016 33.2213 57.5761 32.4263 59.1245 31.0253C59.7241 30.4826 60.2533 30.3956 61.8433 30.5783C62.9293 30.7031 64.1971 30.9154 64.6614 31.05C65.4241 31.2716 65.5051 31.167 65.5051 29.961C65.5051 29.2271 65.3784 28.5518 65.2239 28.4595C64.6243 28.1033 59.6428 27.8839 58.7334 28.1734ZM128.88 28.1636C125.533 28.8904 123.229 31.2825 122.501 34.7873C121.698 38.6599 123.201 43.1666 125.891 44.9468C127.811 46.2173 130.945 46.7138 133.842 46.2056C137.503 45.5636 137.505 45.5629 137.505 44.076C137.505 42.8689 137.427 42.7691 136.661 43.0046C131.578 44.568 128.15 43.6418 126.767 40.3309C126.008 38.514 126.119 35.1 126.997 33.2865C128.125 30.9563 129.522 30.3053 132.773 30.5933C134.242 30.723 135.907 30.9341 136.474 31.0624C137.449 31.2821 137.505 31.2225 137.505 29.964C137.505 29.0198 137.314 28.5769 136.849 28.44C135.586 28.0688 130.181 27.8813 128.88 28.1636ZM46.2729 28.44C46.1255 28.587 46.0051 32.5605 46.0051 37.2701V45.8325H47.8869H49.769L49.6681 37.1138L49.5676 28.395L48.0541 28.2836C47.2216 28.2225 46.4199 28.2926 46.2729 28.44ZM71.7553 28.4576C71.6176 28.5949 71.5051 32.5605 71.5051 37.2701V45.8325H73.3801H75.2551V42.4575V39.0825H76.6179C81.1509 39.0825 84.1153 35.8905 83.3536 31.83C83.0694 30.3158 81.8225 29.0678 80.099 28.5735C78.6643 28.1621 72.1411 28.0714 71.7553 28.4576ZM86.5051 29.52V30.8325H89.6926H92.8801V38.3325V45.8325H94.5676H96.2551V38.3325V30.8325H99.4426H102.63V29.52V28.2075H94.5676H86.5051V29.52ZM107.005 28.4576C106.868 28.5949 106.755 32.5605 106.755 37.2701V45.8325H112.755H118.755V44.7075V43.5825H114.614H110.472L110.582 40.8638L110.693 38.145L113.786 38.0363L116.88 37.9271V36.8175V35.7075H113.693H110.505V33.27V30.8325H114.255H118.005V29.52V28.2075H112.63C109.674 28.2075 107.143 28.32 107.005 28.4576ZM75.2551 33.8325C75.2551 37.1625 75.3594 37.269 77.6746 36.3019C80.9551 34.9309 80.2663 30.8325 76.7551 30.8325H75.2551V33.8325ZM25.0089 46.7175C24.9976 47.6775 27.7171 51.9008 29.5051 53.7C31.9659 56.1754 33.4404 57.0473 34.082 56.4056C34.4146 56.073 33.3834 54.825 29.7658 51.1819C27.1516 48.549 25.0111 46.5401 25.0089 46.7175ZM82.2864 47.6344C80.678 47.7375 80.5051 47.8376 80.5051 48.6656C80.5051 49.9879 79.3888 49.8773 79.3505 48.5513C79.3344 47.9839 79.2335 47.7379 79.1266 48.0045C78.9781 48.3743 78.809 48.3863 78.4108 48.0563C77.6915 47.4593 76.7551 47.898 76.7551 48.8325C76.7551 49.7865 77.6968 50.2016 78.4475 49.5784C78.8349 49.257 79.0051 49.2443 79.0051 49.5368C79.0051 49.7681 79.5114 49.9575 80.1301 49.9575C81.005 49.9575 81.2551 49.791 81.2551 49.2075C81.2551 48.1845 81.914 48.2561 82.1154 49.3013L82.2781 50.145L82.3291 49.3013C82.3921 48.258 83.1301 48.1718 83.1301 49.2075C83.1301 49.7621 83.3803 49.9575 84.0898 49.9575C84.7576 49.9575 84.9639 49.815 84.7678 49.4888C84.5926 49.1974 84.7378 49.2244 85.151 49.56C85.6809 49.9901 85.9621 50.0085 86.5355 49.6504C87.1018 49.2968 87.2563 49.3016 87.2608 49.6733C87.2649 49.992 87.3845 49.9624 87.6301 49.5825C87.83 49.2731 87.9961 49.2086 87.9995 49.4396C88.0029 49.6954 88.6966 49.8416 89.7763 49.8146C91.403 49.7738 91.5474 49.6939 91.547 48.8336C91.547 47.9873 91.3944 47.8943 89.9634 47.8691C89.0926 47.8538 88.3801 48.0008 88.3801 48.1954C88.3801 48.39 88.127 48.3394 87.8176 48.0825C87.4243 47.7563 87.2551 47.7431 87.2551 48.0398C87.2551 48.3424 87.0429 48.3311 86.5145 48.0015C85.9419 47.6438 85.6726 47.64 85.3276 47.985C84.9826 48.33 84.7891 48.3281 84.4745 47.9756C84.2319 47.7038 83.3488 47.5661 82.2864 47.6344ZM127.208 47.6831C127.068 47.9096 126.796 47.9978 126.604 47.8789C126.412 47.7604 126.255 48.1564 126.255 48.7594C126.255 49.8476 126.272 49.8555 128.505 49.8694C129.743 49.8773 130.755 49.7299 130.755 49.5424C130.755 49.3549 131.085 49.407 131.488 49.659C131.891 49.9106 132.35 49.9871 132.509 49.8293C132.667 49.671 132.548 49.3823 132.244 49.1873C131.786 48.8921 131.779 48.7774 132.202 48.5044C132.572 48.2659 132.593 48.1035 132.279 47.9096C132.041 47.763 131.602 47.847 131.301 48.096C130.951 48.3866 130.755 48.4065 130.755 48.1519C130.755 47.9329 130.46 47.7671 130.099 47.7833C129.738 47.799 128.997 47.6906 128.452 47.5418C127.852 47.3783 127.362 47.4341 127.208 47.6831ZM43.3801 48.8325C43.3801 49.4715 43.5834 49.8326 43.9426 49.8326C44.252 49.8326 44.5051 49.6714 44.5051 49.4741C44.5051 49.2548 44.6874 49.2611 44.9739 49.4903C45.2319 49.6965 45.9489 49.8439 46.5676 49.8176C47.393 49.7828 47.6788 49.5953 47.6405 49.1138C47.612 48.7526 47.8228 48.4575 48.1093 48.4575C48.3958 48.4575 48.6496 48.837 48.6736 49.3013C48.713 50.0636 48.7344 50.0726 48.8975 49.395C49.2013 48.132 49.7551 47.8414 49.7551 48.945C49.7551 50.1698 50.3881 50.2939 50.6154 49.1138L50.7781 48.27L50.8291 49.1138C50.8914 50.1435 51.6301 50.2504 51.6301 49.2296C51.6301 48.1759 52.3044 47.9175 52.4473 48.9169C52.6074 50.04 53.8659 50.2804 54.1381 49.2401C54.41 48.1999 54.9976 48.2396 55.0348 49.3013C55.0531 49.8251 55.1353 49.932 55.2519 49.5825C55.7941 47.9573 55.8594 47.8995 56.105 48.8325C56.2618 49.4288 56.6184 49.77 57.0845 49.77C57.6166 49.77 57.8176 49.5128 57.8176 48.8325C57.8176 47.955 57.6815 47.8883 55.6891 47.7896C53.7324 47.6929 53.5468 47.7536 53.393 48.5396L53.2254 49.395L52.9434 48.5396C52.673 47.7188 52.5133 47.6873 48.9583 47.7615C46.6198 47.8103 45.2529 47.9873 45.2495 48.2419C45.2454 48.5216 45.1591 48.5186 44.9683 48.2329C44.4114 47.4 43.3801 47.7893 43.3801 48.8325ZM59.3803 47.9576C59.2426 48.0949 59.1301 48.6011 59.1301 49.0826C59.1301 49.7074 59.3443 49.9575 59.8801 49.9575C60.4636 49.9575 60.6301 49.7074 60.6301 48.8325C60.6301 47.7746 60.0024 47.3351 59.3803 47.9576ZM61.0741 48.7388C61.1724 49.5945 61.382 49.7768 62.3056 49.809C62.9176 49.8304 63.6466 49.6196 63.926 49.3403C64.5969 48.669 65.1301 48.696 65.1301 49.401C65.1301 49.8015 65.462 49.944 66.2551 49.8836C66.8739 49.8364 67.3801 49.6444 67.3801 49.4569C67.3801 49.269 67.5913 49.2893 67.8489 49.5011C68.4511 49.9965 71.06 49.9991 71.3656 49.5049C71.51 49.2713 71.7238 49.3211 71.927 49.6361C72.1993 50.058 72.3181 50.049 72.6245 49.5825C72.8713 49.2064 72.9954 49.1753 72.9995 49.4888C73.0025 49.7468 73.1638 49.9575 73.3576 49.9575C73.5515 49.9575 73.6753 49.4933 73.6321 48.9263C73.5755 48.1751 73.3269 47.8624 72.7171 47.775C72.2521 47.7086 71.8801 47.8541 71.8801 48.1024C71.8801 48.4125 71.7365 48.4331 71.4114 48.1699C71.1538 47.961 70.4878 47.7926 69.9316 47.7956C69.131 47.8001 68.8895 48.006 68.7691 48.7856L68.6176 49.77L68.5614 48.7699C68.5093 47.8433 68.3818 47.7701 66.8176 47.7701C65.825 47.7701 65.1301 47.9426 65.1301 48.1886C65.1301 48.4796 64.9929 48.4703 64.6801 48.1575C64.4326 47.91 63.7693 47.7075 63.2064 47.7075C62.4425 47.7075 62.141 47.922 62.0199 48.5513L61.8571 49.395L61.8061 48.5513C61.778 48.0874 61.5751 47.7075 61.3554 47.7075C61.1353 47.7075 61.0089 48.1714 61.0741 48.7388ZM74.9098 48.8989C74.9259 49.5844 75.0245 49.9343 75.1284 49.6763C75.2326 49.4186 75.569 49.2075 75.8765 49.2075C76.6531 49.2075 76.3468 47.9351 75.5323 47.778C75.014 47.6783 74.8861 47.9085 74.9098 48.8989ZM92.2764 48.2423C91.9351 49.1314 92.4178 50.0291 93.1603 49.8863C93.5754 49.8064 93.8176 49.4179 93.8176 48.8325C93.8176 47.7634 92.6341 47.3104 92.2764 48.2423ZM95.1301 48.8325C95.1301 49.6913 95.3004 49.9575 95.849 49.9575C96.2443 49.9575 96.6526 49.7468 96.7569 49.4888C96.908 49.1138 96.9519 49.1138 96.9755 49.4888C96.992 49.7509 97.46 49.9444 98.0364 49.9279C98.6034 49.9118 98.8651 49.8161 98.6176 49.7153C98.3023 49.587 98.2715 49.26 98.5145 48.6199C98.8224 47.811 98.7598 47.7075 97.9648 47.7075C97.4713 47.7075 96.9826 47.9186 96.8784 48.1763C96.7273 48.5513 96.6834 48.5513 96.6598 48.1763C96.6436 47.9186 96.2926 47.7075 95.8801 47.7075C95.2966 47.7075 95.1301 47.9576 95.1301 48.8325ZM99.6301 48.0825C99.6301 48.2888 99.7873 48.4575 99.9789 48.4575C100.171 48.4575 100.401 48.837 100.49 49.3013L100.653 50.145L100.704 49.3013C100.767 48.258 101.505 48.1718 101.505 49.2075C101.505 49.7621 101.755 49.9575 102.465 49.9575C103.133 49.9575 103.339 49.815 103.143 49.4888C102.925 49.1258 102.983 49.1183 103.402 49.4558C104.047 49.9748 106.002 49.9294 106.011 49.395C106.014 49.1888 106.196 49.2731 106.414 49.5825C106.724 50.0205 106.856 50.0378 107.008 49.6605C107.157 49.2908 107.326 49.2788 107.725 49.6088C108.444 50.2058 109.38 49.767 109.38 48.8325C109.38 47.898 108.444 47.4593 107.725 48.0563C107.326 48.3863 107.157 48.3743 107.009 48.0045C106.858 47.6276 106.808 47.6344 106.785 48.0345C106.761 48.4493 106.646 48.4586 106.193 48.0825C105.744 47.7101 105.63 47.7101 105.63 48.0825C105.63 48.4444 105.497 48.4388 105.037 48.0574C104.557 47.6588 104.3 47.655 103.685 48.039C103.261 48.3038 103.036 48.3353 103.175 48.1103C103.34 47.8436 102.784 47.7075 101.527 47.7075C100.484 47.7075 99.6301 47.8763 99.6301 48.0825ZM109.755 48.8104C109.755 49.7588 109.901 49.9523 110.599 49.9279C111.063 49.9118 111.232 49.8131 110.974 49.7093C110.716 49.605 110.505 49.2064 110.505 48.8235C110.505 48.4403 110.336 48.0225 110.13 47.895C109.912 47.7596 109.755 48.141 109.755 48.8104ZM111.614 48.2888C111.216 48.7691 111.241 48.9795 111.762 49.5004C112.284 50.022 112.52 50.0505 113.136 49.6658C113.545 49.4104 113.88 49.3489 113.88 49.5296C113.88 49.7104 115.315 49.8645 117.068 49.8728L120.255 49.8874V48.7699C120.255 47.9186 120.103 47.682 119.615 47.7758C119.263 47.8436 118.873 48.3199 118.748 48.8344L118.521 49.77L118.256 48.7388C117.935 47.4889 117.351 47.4086 116.892 48.5513L116.553 49.395L116.529 48.5513C116.503 47.6438 115.938 47.4086 115.628 48.1763C115.477 48.5513 115.433 48.5513 115.41 48.1763C115.374 47.6153 113.88 47.5369 113.88 48.0956C113.88 48.3634 113.655 48.3634 113.155 48.0956C112.22 47.5958 112.186 47.5999 111.614 48.2888ZM121.38 48.8325C121.38 49.8169 121.509 49.9538 122.411 49.9279C122.978 49.9118 123.24 49.8161 122.993 49.7153C122.677 49.587 122.647 49.26 122.89 48.6199C123.199 47.8058 123.137 47.7075 122.308 47.7075C121.527 47.7075 121.38 47.8856 121.38 48.8325ZM124.43 48.21C123.852 48.9064 124.282 49.9575 125.145 49.9575C125.665 49.9575 125.803 49.7145 125.721 48.9443C125.595 47.766 125.054 47.4581 124.43 48.21ZM133.005 48.8321C133.005 49.8881 133.087 49.9511 134.334 49.8634C135.548 49.7779 135.643 49.6894 135.428 48.8333C135.1 47.52 134.896 47.4154 134.287 48.2486C133.824 48.8813 133.755 48.8936 133.755 48.3416C133.755 47.9929 133.586 47.7075 133.38 47.7075C133.174 47.7075 133.005 48.2138 133.005 48.8321ZM136.005 48.8051C136.005 49.7198 136.165 49.9575 136.78 49.9575C137.404 49.9575 137.532 49.7569 137.436 48.9296C137.365 48.3094 137.057 47.8519 136.661 47.7769C136.152 47.6801 136.005 47.91 136.005 48.8051ZM112.193 48.8325C112.065 49.0388 112.14 49.2075 112.358 49.2075C112.576 49.2075 112.755 49.0388 112.755 48.8325C112.755 48.6263 112.681 48.4575 112.59 48.4575C112.499 48.4575 112.32 48.6263 112.193 48.8325Z" fill="white"/>
</svg>
