<svg width="165" height="90" viewBox="0 0 165 90" fill="none" xmlns="http://www.w3.org/2000/svg">
<path fill-rule="evenodd" clip-rule="evenodd" d="M21.4101 34.8879C19.1891 35.4107 17.6787 36.2762 16.4602 37.7243C13.2548 41.5336 14.7906 46.7713 19.666 48.6565C21.588 49.3999 22.0394 49.3396 21.5401 48.4072C20.5405 46.5393 21.5409 43.5483 23.4576 42.675C23.9947 42.4303 26.1964 42.2302 28.3506 42.2302C34.2763 42.2302 36.2656 40.8612 36.84 36.3877L37.0901 34.4402L30.0254 34.4812C26.1399 34.5041 22.2629 34.687 21.4101 34.8879ZM109.368 40.2679L108.036 40.6136V48.3621V56.1107L109.116 56.9603C109.786 57.4871 110.799 57.8102 111.781 57.8102C113.26 57.8102 113.366 57.7302 113.366 56.6072C113.366 55.6003 113.182 55.3834 112.238 55.2747L111.111 55.1452L110.906 47.5335L110.701 39.9219L109.368 40.2679ZM50.6357 49.2002V57.8102H52.2757H53.9157V53.0952C53.9157 50.5019 54.0596 48.3802 54.2359 48.3802C54.4118 48.3802 55.2404 49.7639 56.0776 51.4552C57.3683 54.064 57.7554 54.5302 58.6307 54.5302C59.5061 54.5302 59.8931 54.064 61.1838 51.4552C62.021 49.7639 62.8496 48.3802 63.0255 48.3802C63.2018 48.3802 63.3457 50.5019 63.3457 53.0952V57.8102H64.9857H66.6257V49.2002V40.5902H64.989H63.3527L61.0907 45.1002C59.8468 47.5807 58.7394 49.6102 58.6299 49.6102C58.5204 49.6102 57.4729 47.5807 56.3027 45.1002L54.1744 40.5902H52.4053H50.6357V49.2002ZM71.2649 41.1904C69.638 41.8977 68.6757 43.6959 68.6757 46.028C68.6757 48.5499 70.1324 49.8845 73.5416 50.4851C77.1701 51.1239 78.1918 52.3941 76.4657 54.1202C75.7745 54.8114 75.0992 54.9402 72.1607 54.9402H68.6757V56.3752V57.8102H72.1738C77.8601 57.8102 80.1557 56.2522 80.1557 52.3933C80.1557 49.6061 78.7912 48.2199 75.6404 47.8066C71.9381 47.3203 70.5101 45.7545 72.2956 44.1387C72.8643 43.6238 73.8536 43.4602 76.3956 43.4602H79.7457V42.0252V40.5902L76.1582 40.6062C74.0381 40.6156 72.0365 40.8546 71.2649 41.1904ZM82.2057 42.0252V43.4602H84.4607H86.7157V50.6352V57.8102H88.3557H89.9957V50.6352V43.4602H92.2507H94.5057V42.0252V40.5902H88.3557H82.2057V42.0252ZM29.2214 45.9013C29.3985 47.7443 29.3005 48.0485 28.1677 49.1813C26.9299 50.4191 26.8795 50.4302 22.4798 50.4318C18.7738 50.4331 17.8201 50.5679 16.7045 51.2481C14.8608 52.3724 13.739 54.3633 13.7374 56.5154L13.7357 58.2956L21.6282 58.1472C28.7319 58.014 29.6847 57.9115 31.1607 57.1247C35.7687 54.6671 37.1086 49.8697 34.1332 46.4811C32.7646 44.9222 31.0209 43.8702 29.8061 43.8702C29.1181 43.8702 29.0492 44.1096 29.2214 45.9013ZM97.9907 45.6754C96.2962 46.4233 95.4852 47.4528 94.9206 49.5729C94.0588 52.8078 95.2626 56.253 97.5947 57.2276C98.381 57.556 100.336 57.8102 102.078 57.8102H105.166V56.5802V55.3502H102.387C99.3503 55.3502 97.7857 54.6454 97.7857 53.2768C97.7857 52.547 98.0948 52.4802 101.476 52.4802H105.166V50.4855C105.166 48.1436 104.123 46.5376 102.035 45.6656C100.377 44.9727 99.5782 44.9743 97.9907 45.6754ZM118.725 45.8185C116.462 46.9718 115.683 48.3802 115.666 51.3424C115.64 56.089 117.479 57.8102 122.578 57.8102H125.256V56.5802C125.256 55.3526 125.251 55.3502 122.841 55.3502C119.722 55.3502 118.683 54.5732 118.433 52.0542C118.327 50.9853 118.476 49.7992 118.791 49.2002C119.268 48.2933 119.66 48.1514 122.191 47.9702L125.051 47.7652L125.179 46.4327L125.308 45.1002L122.719 45.101C121.066 45.1014 119.623 45.3601 118.725 45.8185ZM130.381 45.6754C128.202 46.6369 127.55 47.7537 127.377 50.8193C127.262 52.8475 127.407 54.005 127.909 55.0628C129.555 58.5314 135.198 58.72 136.934 55.3637C137.314 54.6286 137.556 53.0579 137.556 51.326C137.556 48.0825 136.758 46.6401 134.425 45.6656C132.767 44.9727 131.968 44.9743 130.381 45.6754ZM140.426 51.4154V57.8102H141.861H143.296V52.8902V47.9702H145.126C147.542 47.9702 147.806 48.5335 147.806 53.6831V57.8102H149.241H150.676V53.3822C150.676 48.5786 150.913 47.9702 152.784 47.9702C154.666 47.9702 155.186 49.2318 155.186 53.8016V57.8102H156.621H158.056V53.0558C158.056 47.5237 157.521 46.2843 154.783 45.4639C153.394 45.0477 152.968 45.0973 151.441 45.8529C149.781 46.6742 149.652 46.6824 148.911 46.012C148.319 45.4749 147.205 45.2712 144.278 45.1629L140.426 45.0211V51.4154ZM98.2777 48.4622C98.0071 48.7328 97.7857 49.2863 97.7857 49.6922C97.7857 50.3133 98.1424 50.4302 100.041 50.4302C102.365 50.4302 102.633 50.1858 101.871 48.7631C101.385 47.8542 99.0788 47.661 98.2777 48.4622ZM130.748 49.0017C130.004 50.1379 130.108 53.8065 130.907 54.6056C131.6 55.2985 133.545 55.1136 134.141 54.2981C134.914 53.2407 134.847 49.4204 134.042 48.6143C133.063 47.636 131.525 47.8168 130.748 49.0017Z" fill="white"/>
</svg>
