<svg width="154" height="85" viewBox="0 0 154 85" fill="none" xmlns="http://www.w3.org/2000/svg">
<path fill-rule="evenodd" clip-rule="evenodd" d="M66.5615 12.4533C58.4921 14.6898 55.5775 21.625 60.6831 26.4398C62.0784 27.7558 65.8209 29.4082 66.9083 29.1884C67.4004 29.0887 67.4959 28.6407 67.3942 26.9028C67.24 24.2535 67.886 23.1136 70.1666 22.0097C71.5616 21.3342 72.5424 21.2226 77.1348 21.2153C83.248 21.2057 84.7009 20.7823 86.7921 18.4004C88.207 16.7887 88.5285 15.824 88.3555 13.7079L88.2327 12.2101L78.0684 12.1456C72.4534 12.11 67.3029 12.2477 66.5615 12.4533ZM77.3856 22.977C77.1539 23.3913 77.1635 24 77.4121 24.6586C77.9468 26.0747 77.4719 27.6607 76.1421 28.9027C74.7199 30.2317 73.6528 30.4293 67.9044 30.4293C62.6645 30.4293 60.578 30.9356 58.7526 32.6497C56.5724 34.6968 55.7731 38.7874 57.3848 39.6501C57.9268 39.94 61.258 40.0348 67.8369 39.9466C79.163 39.7947 80.7261 39.4683 83.933 36.585C86.6498 34.1425 87.3521 32.0667 86.6498 28.5556C86.1757 26.1848 82.4889 23.3192 78.9636 22.5816C78.04 22.3886 77.6622 22.483 77.3856 22.977ZM30.315 56.1152C26.0348 56.7013 22.6721 59.3145 21.6917 62.816C21.2602 64.3568 21.2944 64.6932 22.0385 66.2309C23.0518 68.3236 25.0107 69.2844 29.5463 69.9131C33.1748 70.4159 34.179 71.1282 33.7854 72.9198C33.2492 75.3619 31.2409 76.0731 24.8784 76.0731C20.136 76.0731 20.1314 76.0738 19.7574 77.0569C19.0758 78.8497 19.2864 79.8696 20.3945 80.148C21.7243 80.4817 29.0124 80.074 31.5239 79.5259C35.3665 78.6867 38.0384 76.2948 38.98 72.8515C39.3099 71.6456 39.2631 71.0262 38.7395 69.6546C37.9175 67.5028 36.5567 66.657 33.0333 66.1078C27.6243 65.2647 26.3144 64.5056 26.8169 62.5042C27.3224 60.4893 28.9449 59.9673 34.7259 59.9589C37.5739 59.9551 40.1031 59.825 40.3459 59.6701C40.589 59.5151 40.846 58.7142 40.917 57.8911C41.0205 56.6825 40.8986 56.3361 40.2829 56.096C39.3636 55.737 32.9861 55.7493 30.315 56.1152ZM92.1163 60.2512C88.6842 65.5274 81.1369 78.5731 81.1369 79.2298C81.1369 79.7967 81.4836 79.9087 83.2411 79.9087C85.295 79.9087 85.3702 79.8699 86.4016 78.2785C86.9831 77.3818 87.6325 76.5188 87.8457 76.36C88.0586 76.2016 90.2177 76.1153 92.6437 76.1682L97.0547 76.2649L97.421 77.7991C97.8808 79.7246 98.1359 79.8956 100.562 79.9029C103.031 79.9102 103.187 79.5642 102.239 76.1797C101.503 73.55 100.768 70.707 98.9471 63.4462C97.4513 57.4799 97.5587 57.6621 95.5331 57.6621C93.8162 57.6621 93.7852 57.6855 92.1163 60.2512ZM109.233 57.916C108.969 58.0227 108.753 58.6793 108.753 59.3755C108.753 60.7985 109.426 61.0981 111.822 60.7398C113.054 60.5553 113.174 60.4203 113.283 59.1005L113.402 57.6621L111.557 57.6924C110.543 57.7089 109.497 57.8098 109.233 57.916ZM46.6297 63.4804C43.4765 65.1174 42.2253 67.0087 41.347 71.4673L40.7206 74.6462L41.655 76.3933C43.3756 79.6118 47.2373 80.708 51.9378 79.3122C55.8697 78.1447 58.5067 73.848 58.5067 68.6101C58.5067 64.9218 55.9031 62.6177 51.4185 62.3373C49.3914 62.2108 48.8065 62.3504 46.6297 63.4804ZM61.8211 62.561C61.6028 62.9142 59.4403 74.6228 59.0529 77.5509C58.8454 79.1162 58.9079 79.6843 59.3153 79.9424C60.0187 80.3878 62.3838 80.3755 63.1003 79.9225C63.4823 79.6808 64.0032 77.4861 64.7055 73.158C65.333 69.2925 65.9451 66.6248 66.2493 66.4319C66.9378 65.9954 69.7478 66.0184 70.9368 66.4706C72.4093 67.0302 72.5182 68.3735 71.5697 74.2715C70.5989 80.3084 70.6158 80.3663 73.3156 80.1484C75.4275 79.9777 75.6197 79.8116 75.9085 77.9053C76.0451 77.0032 76.411 74.884 76.7217 73.1964C77.8578 67.021 77.251 64.9018 73.8492 63.167C72.3115 62.3826 71.5704 62.2852 67.0636 62.2756C64.2809 62.2698 61.9216 62.398 61.8211 62.561ZM120.452 63.7723C117.494 64.2747 115.111 66.158 114.483 68.4889C113.817 70.9613 112.567 79.1788 112.799 79.5547C112.919 79.7495 113.875 79.9087 114.922 79.9087C117.125 79.9087 117.297 79.6636 117.745 75.8813C117.895 74.6155 118.192 72.8032 118.405 71.8539C119.271 67.9968 119.888 67.2561 122.249 67.2454C123.912 67.2377 124.328 66.9274 124.648 65.4561C124.862 64.4665 124.767 64.1585 124.146 63.826C123.315 63.3814 122.797 63.3737 120.452 63.7723ZM105.571 64.0411C104.974 64.638 105.347 65.7533 106.26 66.1005C107.442 66.5496 107.442 66.5665 106.259 73.5469C105.732 76.663 105.396 79.369 105.515 79.5604C105.633 79.7518 106.587 79.9087 107.633 79.9087C109.253 79.9087 109.586 79.7802 109.868 79.0457C110.243 78.0687 111.851 68.6914 112.286 64.9498C112.396 64.0005 112.365 63.9897 109.119 63.8812C107.316 63.821 105.719 63.8927 105.571 64.0411ZM92.1642 68.4778C91.1889 70.2069 90.4762 71.7603 90.5809 71.9298C90.8291 72.3314 95.609 72.331 95.8576 71.9291C96.1928 71.3863 94.7038 65.3333 94.2347 65.3333C94.0713 65.3333 93.1393 66.7483 92.1642 68.4778ZM48.4382 66.8983C47.3623 67.525 46.6025 69.391 46.3582 72.0058C46.1583 74.1499 46.2282 74.5342 46.9492 75.2553C48.3025 76.6085 51.0234 76.1628 52.1791 74.3988C52.5186 73.881 52.9834 72.3268 53.2124 70.9449C53.5711 68.7808 53.5404 68.2975 52.9903 67.4583C52.4706 66.6651 52.0506 66.4863 50.7308 66.4955C49.839 66.5021 48.8072 66.6831 48.4382 66.8983Z" fill="white"/>
</svg>
