<svg width="151" height="54" viewBox="0 0 151 54" fill="none" xmlns="http://www.w3.org/2000/svg">
<path fill-rule="evenodd" clip-rule="evenodd" d="M56.647 7.5507C53.2641 9.04695 53.5866 13.5871 57.1292 14.3408C57.7142 14.4653 58.5798 14.6461 59.0526 14.7424C60.0775 14.9509 60.5219 15.887 59.995 16.7273C59.728 17.1537 58.8516 17.3881 57.0291 17.5201C54.5703 17.6982 54.4427 17.7537 54.4427 18.6451C54.4427 19.5462 54.5455 19.5867 57.0839 19.6913C59.3346 19.7836 59.917 19.6711 61.0214 18.9286C64.2805 16.7382 62.7906 12.2701 58.8006 12.2701C57.7397 12.2701 56.5052 11.4634 56.5052 10.7701C56.5052 9.80445 57.7926 9.27007 60.1195 9.27007H62.5551L62.4362 8.23882C62.323 7.25295 62.2184 7.20382 60.0677 7.1202C58.777 7.06995 57.3186 7.25333 56.647 7.5507ZM116.411 7.80007C115.839 8.13382 115.755 8.8152 115.755 13.1607C115.755 17.8801 115.801 18.1819 116.623 18.9548C117.655 19.9242 119.426 20.0363 119.766 19.1536C119.924 18.7411 119.66 18.2877 118.968 17.7837C117.98 17.0641 117.938 16.9036 118.02 14.1814C118.223 7.4412 118.07 6.83407 116.411 7.80007ZM23.8802 10.2754C18.1337 11.2598 14.2997 15.5783 15.0359 20.2369C15.1746 21.1144 15.7109 22.4746 16.2276 23.2587C17.425 25.076 20.2596 26.8951 21.8946 26.8951H23.1366L22.9022 24.8986C22.7282 23.4203 22.8265 22.595 23.2802 21.7175C24.2856 19.7731 25.4976 19.3951 30.7259 19.3951C35.2109 19.3951 35.4137 19.3598 37.102 18.2896C39.3921 16.8368 40.4583 14.7957 40.3053 12.1542L40.1927 10.2076L32.5052 10.1611C28.2771 10.1356 24.3959 10.1869 23.8802 10.2754ZM65.5465 10.9186C63.6876 11.9487 63.061 15.0567 64.1747 17.7218C65.1141 19.9703 68.1981 20.5099 69.9715 18.7366C73.5179 15.1902 69.7735 8.57557 65.5465 10.9186ZM72.5054 10.6452C72.3678 10.7824 72.2552 12.8127 72.2552 15.1568C72.2552 18.7565 72.3505 19.4551 72.8688 19.6542C73.7496 19.9921 74.6879 19.2698 74.7224 18.2273C74.7385 17.7353 74.7809 16.2672 74.8161 14.9652L74.8802 12.5975L76.099 12.7152L77.3177 12.8326L77.413 15.4576C77.5559 19.3864 77.7171 19.8391 78.9246 19.7C79.7327 19.6069 79.9682 19.3606 80.0658 18.5059L80.1888 17.4297L81.4142 18.6173C82.5951 19.7622 82.7406 19.8012 85.4162 19.694L88.1927 19.5826V15.8929C88.1927 12.2978 88.1654 12.1801 87.1195 11.2812C86.2278 10.5147 85.7207 10.3778 84.1229 10.4708C82.5891 10.5601 82.1725 10.7254 82.0656 11.2876C81.8909 12.2067 82.6097 12.6323 84.349 12.6395C85.5033 12.6439 85.7552 12.7793 85.7552 13.3951C85.7552 14.0232 85.5051 14.1451 84.2177 14.1451C82.9799 14.1451 82.4402 14.3851 81.4491 15.3762L80.2184 16.6069L80.0061 14.5324C79.8325 12.8356 79.5843 12.2697 78.6434 11.4263C77.6455 10.5316 77.1801 10.3951 75.1244 10.3951C73.8213 10.3951 72.6426 10.5076 72.5054 10.6452ZM89.6676 10.8878C89.5638 11.1589 89.5266 13.2263 89.5855 15.4816C89.6882 19.4138 89.7276 19.5875 90.538 19.7026C91.6345 19.8582 91.8246 19.3006 91.8895 15.7373C91.9412 12.9083 91.9679 12.8296 92.9125 12.7197C94.3442 12.5536 94.7087 13.2908 94.8317 16.6002L94.9427 19.5826H96.0677H97.1927L97.1609 16.0546C97.1298 12.5802 97.111 12.5104 95.9361 11.4608C94.8842 10.5211 94.4549 10.3951 92.3001 10.3951C90.6276 10.3951 89.797 10.5507 89.6676 10.8878ZM99.5136 11.2996C98.6016 12.1448 98.5052 12.4887 98.5052 14.8943C98.5052 17.2478 98.6159 17.6648 99.4649 18.5138C100.309 19.358 100.625 19.4434 102.09 19.2237C104.156 18.9139 104.293 19.5065 102.601 21.4332C100.732 23.5625 102.311 24.4452 104.437 22.4592C105.844 21.1448 106.073 19.9531 105.93 14.7076L105.818 10.5826L103.17 10.4738C100.787 10.3759 100.421 10.4588 99.5136 11.2996ZM108.94 11.0371C107.639 11.8444 107.13 13.0141 107.132 15.1939C107.134 17.471 108.179 19.2365 109.728 19.5766C113.338 20.3697 115.705 17.4229 114.608 13.5023C113.845 10.7779 111.207 9.63083 108.94 11.0371ZM66.397 13.5994C65.866 14.4098 65.839 14.7781 66.2159 16.0369C66.5395 17.1169 66.8628 17.5201 67.4046 17.5201C68.8071 17.5201 69.3955 14.3524 68.1944 13.2657C67.2891 12.4463 67.1339 12.4752 66.397 13.5994ZM101.353 13.4581C100.61 14.5186 100.59 15.6541 101.296 16.6047C101.729 17.1874 101.971 17.2497 102.514 16.9167C103.45 16.3426 103.498 12.9016 102.572 12.7234C102.231 12.6574 101.683 12.9882 101.353 13.4581ZM110.103 13.2406C109.148 14.3914 109.788 17.5201 110.979 17.5201C112.302 17.5201 112.843 14.3052 111.694 13.2657C110.847 12.4988 110.72 12.497 110.103 13.2406ZM83.2728 16.5646C82.9967 17.2834 83.3219 17.7597 84.256 18.0038C85.1665 18.242 86.1846 17.3479 85.8869 16.5717C85.6116 15.8543 83.5472 15.8487 83.2728 16.5646ZM30.9048 20.9911C30.7919 21.2851 30.8504 21.7636 31.0341 22.0542C31.5381 22.8503 31.447 24.5532 30.8369 25.733C29.8517 27.638 28.981 27.9158 23.4899 28.076C19.0431 28.2061 18.2676 28.3265 17.0594 29.0731C15.0332 30.3252 13.7552 32.7357 13.7552 35.3056V37.3951H21.6119C30.3051 37.3951 32.3864 37.1029 34.8569 35.5362C39.5868 32.5366 40.5925 27.0406 37.0784 23.3956C35.4692 21.7264 34.3188 21.0582 32.4509 20.708C31.4609 20.5219 31.0562 20.5962 30.9048 20.9911ZM95.9552 24.1651C94.8655 24.3698 93.2526 27.4174 93.8942 28.0591C94.4496 28.6144 95.1872 28.1536 96.6085 26.3622C98.1426 24.4287 97.9525 23.7889 95.9552 24.1651ZM119.719 25.4716C119.226 26.1755 119.215 26.4113 119.649 27.0653C120.621 28.5323 122.505 28.0685 122.505 26.3618C122.505 24.6286 120.711 24.0552 119.719 25.4716ZM55.7357 25.4806C55.2614 25.8844 55.1957 27.2682 55.309 34.4986L55.4429 43.0399L60.9426 42.9361L66.4427 42.8326V41.8951C66.4427 40.9632 66.4176 40.9564 62.3177 40.7701L58.1927 40.5826L58.0911 32.9888C58.0353 28.8121 57.8384 25.3951 57.6531 25.3951C57.4679 25.3951 57.0869 25.3069 56.8064 25.1993C56.5259 25.0917 56.044 25.2181 55.7357 25.4806ZM112.255 27.1452C112.118 27.2824 112.005 28.1262 112.005 29.0202C112.005 30.1591 111.849 30.6451 111.483 30.6451C110.605 30.6451 110.47 31.7468 111.263 32.4263C111.898 32.9704 112.005 33.5374 112.005 36.3653C112.005 41.3723 113.087 43.2177 115.866 42.9488C116.783 42.8603 117.096 42.6323 117.187 41.9896C117.277 41.3562 117.046 41.0468 116.258 40.7472C115.68 40.5278 115.106 40.1824 114.98 39.9799C114.855 39.7774 114.784 38.1428 114.823 36.3473C114.888 33.3567 114.959 33.0728 115.672 32.9663C117.542 32.6873 117.7 30.788 115.871 30.5783C114.994 30.4778 114.808 30.2693 114.758 29.3326C114.726 28.7138 114.684 27.9125 114.665 27.5513C114.64 27.089 114.316 26.8951 113.568 26.8951C112.983 26.8951 112.393 27.0076 112.255 27.1452ZM70.4069 30.9271C68.23 32.0367 67.5677 33.3117 67.5677 36.3912C67.5677 40.6969 68.8514 42.5648 72.0591 42.9263C75.4907 43.3133 77.5049 41.2437 77.7704 37.0583C77.9571 34.1131 77.2559 32.4323 75.2935 31.1213C73.7676 30.1021 72.1506 30.0376 70.4069 30.9271ZM82.198 31.0831C80.7936 32.1878 80.1288 33.9496 80.1385 36.5393C80.1572 41.5205 82.4616 43.4389 86.7865 42.0739C87.538 41.8366 87.6302 41.9356 87.6302 42.9762C87.6302 44.5523 86.4767 45.6451 84.8125 45.6451C84.088 45.6451 83.1625 45.4373 82.7564 45.1838C82.144 44.8013 81.9051 44.8347 81.3614 45.3781C80.4704 46.2695 81.0737 47.1845 82.9716 47.8197C85.1714 48.5562 87.1679 48.0706 88.8479 46.3906L90.2552 44.9832V37.8023C90.2552 29.9783 90.145 29.6003 88.1706 30.6571C87.4634 31.0354 87.049 31.0463 86.3031 30.7066C84.8477 30.0436 83.344 30.1812 82.198 31.0831ZM93.8054 30.7295C93.6977 31.0096 93.6565 33.8476 93.7139 37.0358L93.8177 42.8326L94.978 42.9458L96.1379 43.0587L96.3471 38.6333C96.4622 36.1992 96.4461 33.3638 96.3119 32.3326C96.091 30.6361 95.9695 30.4463 95.0342 30.3387C94.4174 30.2678 93.922 30.4253 93.8054 30.7295ZM101.647 30.8089C99.5399 31.7262 98.6425 34.0493 99.6602 35.9513C100.179 36.9207 102.207 37.7686 104.024 37.7757C105.848 37.7832 106.477 38.2009 106.319 39.3001C106.131 40.6163 104.28 41.0329 101.99 40.2743C100.286 39.7099 100.155 39.7159 99.4735 40.3917C98.5532 41.3033 99.1165 42.0919 101.077 42.6364C105.454 43.8526 109.005 42.2314 109.005 39.0173C109.005 37.9021 108.774 37.1637 108.265 36.6544C107.514 35.9041 107.283 35.8302 103.946 35.2711C102.593 35.0446 102.038 34.7705 101.946 34.2833C101.654 32.7398 103.842 32.0014 106.129 32.8711C106.777 33.1171 107.251 33.0773 107.715 32.7379C109.876 31.1577 104.657 29.4987 101.647 30.8089ZM119.686 31.1138C119.571 31.5777 119.526 34.4044 119.585 37.3951C119.692 42.7917 119.699 42.8337 120.58 42.9582C121.067 43.0272 121.647 42.9034 121.867 42.6833C122.402 42.1486 122.565 31.3688 122.048 30.7388C121.39 29.9367 119.919 30.1703 119.686 31.1138ZM128.138 30.9271C124.478 32.7657 123.769 38.5651 126.84 41.5418C128.498 43.1487 131.39 43.4873 133.286 42.2963C134.705 41.4057 134.77 41.1256 133.765 40.2162C133.063 39.581 132.973 39.5798 132.042 40.1899C130.95 40.9058 129.502 40.7284 128.411 39.7452C127.927 39.3087 127.755 38.5729 127.755 36.9372C127.755 34.3013 128.107 33.5262 129.577 32.9168C130.485 32.5411 130.877 32.5636 131.809 33.0458C132.854 33.5862 133.004 33.5787 133.782 32.9487C134.799 32.1252 134.518 31.5188 132.784 30.7943C131.109 30.0946 129.715 30.1343 128.138 30.9271ZM138.394 30.7872C136.871 31.4802 136.528 32.0787 137.246 32.7961C137.719 33.2693 138.106 33.3038 139.362 32.9851C141.816 32.3622 143.505 33.0323 143.505 34.6283C143.505 35.4597 143.365 35.5201 141.431 35.5201C139.025 35.5201 136.989 36.2573 136.41 37.3388C135.806 38.4672 135.936 40.4757 136.67 41.3825C137.746 42.7111 138.67 42.9544 142.385 42.8877L145.943 42.8236L146.048 38.2879C146.162 33.3424 145.894 32.1237 144.488 31.2031C143.192 30.3533 139.85 30.1253 138.394 30.7872ZM84.1454 33.1369C83.0241 33.7246 82.5314 35.4957 82.8846 37.6714C83.281 40.1153 85.1643 41.0202 86.6864 39.4981C87.4585 38.726 87.6302 38.1908 87.6302 36.5581C87.6302 33.4497 86.2101 32.0554 84.1454 33.1369ZM71.0189 33.5611C69.3914 35.3596 69.9512 39.596 71.9245 40.4135C72.9655 40.8447 73.1432 40.8023 74.0316 39.9139C75.4176 38.5283 75.6707 35.3907 74.515 33.9263C73.5602 32.7169 71.9361 32.5474 71.0189 33.5611ZM139.229 37.8848C138.259 38.5939 138.583 40.1105 139.796 40.5353C141.81 41.2403 144.024 39.6623 143.379 37.9816C143.096 37.2439 140.198 37.1764 139.229 37.8848Z" fill="white"/>
</svg>
