<svg width="151" height="66" viewBox="0 0 151 66" fill="none" xmlns="http://www.w3.org/2000/svg">
<path fill-rule="evenodd" clip-rule="evenodd" d="M68.6927 13.5555C65.1013 14.4214 61.7406 18.3218 61.7635 21.597C61.7826 24.339 64.2681 27.5471 67.2703 28.7051C68.9972 29.3711 69.4776 29.106 69.0276 27.7354C68.3218 25.5855 69.1742 23.4533 71.2442 22.191C72.2548 21.5749 73.1436 21.4601 76.9097 21.459C80.9481 21.4575 81.5245 21.3709 82.9138 20.5568C84.8822 19.4033 86.1302 17.223 86.1302 14.9378V13.2075L77.974 13.2458C73.4878 13.2671 69.3115 13.4063 68.6927 13.5555ZM77.5052 23.6831C77.5052 23.8759 77.6792 24.4909 77.8915 25.0496C78.4341 26.4769 77.7595 28.2818 76.1567 29.6888C74.8566 30.8303 74.8457 30.8325 70.2677 30.8325C65.0961 30.8325 63.8957 31.224 62.0406 33.5164C61.2235 34.5259 60.9752 35.2564 60.9062 36.852L60.8177 38.895L68.6635 38.9966C74.7313 39.075 76.9435 38.9719 78.4236 38.5418C80.4958 37.9391 83.224 35.8556 84.0246 34.2638C85.3978 31.5338 84.8001 27.7451 82.6716 25.6849C80.9215 23.991 77.5052 22.6673 77.5052 23.6831ZM39.334 47.9756C38.3867 48.7774 38.0721 49.3684 37.9791 50.52C37.747 53.3884 38.4932 54.0431 43.0933 55.0046C43.8002 55.1524 44.1958 55.5266 44.3672 56.2091C44.7246 57.6323 43.7353 58.2075 40.9292 58.2075C39.1768 58.2075 38.4733 58.371 38.0061 58.8878C37.027 59.9693 37.9168 60.4575 40.8673 60.4575C43.8197 60.4575 45.8605 59.6854 46.4755 58.3358C47.023 57.1339 47.9398 57.2378 48.7086 58.5881C49.5598 60.0844 50.9991 60.6139 53.1212 60.2126C54.5492 59.9423 54.9265 59.6711 55.6465 58.395C56.5187 56.8489 56.7925 54.3041 56.1302 53.895C55.924 53.7675 55.7552 53.3479 55.7552 52.9628C55.7552 52.1625 54.181 50.7971 52.882 50.4713C50.7883 49.9459 48.2552 51.7335 48.2552 53.7364C48.2552 55.3849 47.2543 55.5814 46.1357 54.1523C45.5125 53.3554 44.7816 52.9148 43.8328 52.7633C38.6886 51.9405 38.773 49.356 43.9513 49.1329C46.462 49.0245 46.5677 48.9821 46.5677 48.0825C46.5677 47.1694 46.4893 47.1424 43.5677 47.0381C40.756 46.9384 40.4905 46.9969 39.334 47.9756ZM105.536 47.7375C104.96 48.0731 104.88 48.7699 104.88 53.4671C104.88 59.4788 105.049 59.9745 107.219 60.3266C108.343 60.5089 108.667 60.423 108.872 59.889C109.052 59.4206 108.832 59.0096 108.128 58.4974L107.13 57.7699V52.5514C107.13 47.1158 107.045 46.8589 105.536 47.7375ZM57.7397 50.8013C57.5428 51.0593 57.3958 53.295 57.4123 55.77L57.4427 60.27H58.5677H59.6927L59.7996 56.4263L59.9065 52.5825H61.1961C62.992 52.5825 63.6302 53.9119 63.6302 57.6514V60.5074L64.6615 60.3885C65.5067 60.2914 65.7085 60.0671 65.7801 59.145C65.9822 56.5485 65.7118 53.6449 65.1756 52.656C64.384 51.1954 62.5438 50.3355 60.2072 50.334C58.9581 50.3333 57.9512 50.5238 57.7397 50.8013ZM68.266 50.895C67.8362 52.0144 68.431 52.5375 70.2666 52.6549C71.7793 52.7516 72.0677 52.89 72.0677 53.52C72.0677 54.1151 71.749 54.3124 70.5227 54.4763C67.5058 54.879 65.9605 56.8178 67.0431 58.8409C67.7398 60.1425 68.9222 60.5066 72.0381 60.3788L74.6927 60.27L74.6406 56.3415L74.5885 52.4134L73.3423 51.3728C72.3591 50.5519 71.7148 50.3325 70.2887 50.3325C69.0283 50.3325 68.4163 50.5028 68.266 50.895ZM76.3078 55.0583C76.2445 57.6574 76.2962 59.9501 76.4226 60.1534C76.549 60.357 77.0552 60.4661 77.5476 60.3964C78.4082 60.2749 78.4498 60.1249 78.6302 56.52L78.8177 52.77L79.9746 52.6571C80.6181 52.5941 81.3186 52.7693 81.5526 53.0516C81.7843 53.3306 82.0232 55.0691 82.0832 56.9145L82.1927 60.27H83.3177H84.4427L84.4037 56.5369L84.3643 52.8041L82.9348 51.5681C81.6212 50.4326 81.2991 50.3325 78.9643 50.3325H76.423L76.3078 55.0583ZM87.4022 51.2595C86.3796 52.0661 86.206 52.4783 85.9858 54.6293C85.5853 58.5375 86.8562 60.2449 89.9927 60.012C91.4792 59.9018 91.5613 59.9475 91.4518 60.8325C91.3881 61.3481 90.9238 62.1139 90.4206 62.5343C88.7203 63.9536 89.4568 64.9264 91.5647 64.0455C93.5901 63.1991 93.9358 61.9586 93.8185 55.9575C93.7641 53.1731 93.6992 50.7683 93.6748 50.6138C93.6505 50.4593 92.4913 50.3344 91.099 50.3366C88.9836 50.34 88.3761 50.4919 87.4022 51.2595ZM97.342 51.1901C94.9881 52.7741 94.5231 56.7761 96.4168 59.1514C97.219 60.1571 97.5242 60.27 99.4397 60.27C101.3 60.27 101.683 60.1388 102.458 59.2373C104.319 57.0746 104.112 53.5489 102.009 51.5655C100.442 50.088 99.136 49.9826 97.342 51.1901ZM89.4868 53.2718C87.889 54.5659 88.6401 58.2848 90.3658 57.6225C91.4143 57.2201 91.768 53.0164 90.7806 52.6928C90.5541 52.6185 89.9721 52.8791 89.4868 53.2718ZM98.7058 53.3183C98.2682 53.8016 98.1201 54.5269 98.2018 55.7858C98.4096 58.9796 100.514 59.0014 100.922 55.8139C101.227 53.4371 99.9246 51.9713 98.7058 53.3183ZM51.1303 53.2076C50.9927 53.3449 50.8802 54.4305 50.8802 55.6196C50.8802 57.4695 50.9912 57.8171 51.6482 58.0256C52.0705 58.1599 52.6611 58.0661 52.9607 57.8175C53.629 57.2629 53.6976 54.0499 53.0552 53.4075C52.5651 52.9174 51.5282 52.8094 51.1303 53.2076ZM69.5053 56.5826C69.3677 56.7199 69.2552 57.2261 69.2552 57.7076C69.2552 58.4535 69.4442 58.5825 70.5366 58.5825C71.8558 58.5825 72.2593 58.1318 71.9631 56.9888C71.794 56.337 70.0405 56.0471 69.5053 56.5826Z" fill="white"/>
</svg>
