<svg width="162" height="90" viewBox="0 0 162 90" fill="none" xmlns="http://www.w3.org/2000/svg">
<path fill-rule="evenodd" clip-rule="evenodd" d="M76.3712 26.3782C75.7062 26.7264 74.7607 27.499 74.2699 28.0946C72.229 30.5716 74.0075 34.9729 77.0644 35.0084C78.0618 35.02 78.1553 34.8935 78.107 33.6022C78.0312 31.5851 78.9215 31.0931 82.9464 30.9278C86.1769 30.7952 86.3591 30.736 87.5109 29.4472C88.3375 28.5218 88.6716 27.7702 88.5861 27.0291L88.4616 25.9534L83.0209 25.8491C78.7046 25.7664 77.3304 25.8756 76.3712 26.3782ZM83.141 33.2141C83.2043 35.4452 82.3692 35.9566 78.2504 36.2113C74.3078 36.4548 73.563 36.8292 72.6437 39.0288C71.7514 41.1636 72.3181 41.3586 78.8586 41.1688C84.8921 40.9943 86.0024 40.6562 87.1978 38.6323C87.5605 38.0185 87.8571 37.0367 87.8571 36.4503C87.8571 34.216 85.8408 31.7971 83.9785 31.7971C83.2357 31.7971 83.1068 32.0148 83.141 33.2141ZM46.3607 50.4591C44.4706 51.1104 43.1225 53.1835 43.1225 55.4391C43.1225 56.9718 43.2825 57.2962 44.3614 57.9523C45.0425 58.3666 46.3487 58.8253 47.2631 58.9716C49.8887 59.3915 50.5477 60.2765 49.4027 61.8455C48.9416 62.4774 48.1868 62.6664 45.4733 62.8292L42.115 63.0307V64.2398V65.4488L45.3895 65.3843C50.2522 65.2888 52.2065 63.9782 52.6728 60.4994C52.9762 58.2381 51.6813 56.8666 48.8215 56.4209C46.5631 56.0691 45.8695 55.5085 46.042 54.1745C46.1959 52.9852 47.8418 52.3633 50.8535 52.3569C53.1858 52.3517 53.5807 52.2432 53.8012 51.5485C53.9414 51.1072 53.9426 50.5631 53.8048 50.3394C53.4598 49.7816 48.0768 49.8683 46.3607 50.4591ZM91.2827 50.5018C88.5668 51.7089 87.2776 54.4401 86.7786 60.0432C86.5521 62.5842 86.5948 62.7567 87.7712 64.0733C88.9275 65.3678 89.1524 65.4488 91.5834 65.4488C93.7866 65.4488 94.3823 65.2844 95.634 64.3292C97.1099 63.2036 98.3355 60.3789 98.3355 58.1031C98.3355 57.1838 98.2399 57.1544 95.6151 57.2692C93.0141 57.3833 92.8948 57.4325 92.8948 58.3961C92.8948 59.1912 93.1007 59.4056 93.8717 59.4125C95.0638 59.4229 95.3733 60.1762 94.7015 61.432C93.9889 62.7631 92.1286 63.4716 90.8616 62.8941C89.9636 62.485 89.8726 62.2094 89.8746 59.9158C89.877 57.029 90.4718 54.4864 91.3851 53.4591C91.8872 52.8945 92.6791 52.7539 95.3612 52.7539C98.2597 52.7539 98.7663 52.6491 99.1274 51.9744C100.105 50.1464 99.7758 49.9316 96.0181 49.9485C93.9873 49.9578 91.9791 50.1923 91.2827 50.5018ZM105.62 50.7997C105.175 51.2768 104.916 51.8354 105.043 52.0413C105.532 52.8333 108.814 51.2946 108.814 50.2733C108.814 49.5588 106.406 49.9557 105.62 50.7997ZM56.3039 55.1526C54.7475 56.5196 54.0039 58.5984 54.0039 61.5843C54.0039 64.3578 55.1843 65.6511 57.7137 65.6487C61.2158 65.6459 63.2035 63.2443 63.5791 58.5621C63.7641 56.2577 63.6936 55.9586 62.7396 55.0047C61.8965 54.1616 61.3126 53.9629 59.6783 53.9629C58.0167 53.9629 57.419 54.1737 56.3039 55.1526ZM65.8598 54.5086C65.5003 55.4448 64.2384 64.7169 64.4029 65.2106C64.5721 65.718 65.6663 65.7817 66.3833 65.3263C66.6533 65.155 67.1377 63.2592 67.4597 61.1136C67.7822 58.9683 68.1618 57.0254 68.3028 56.7969C68.6688 56.2049 70.2389 56.2827 71.134 56.9372C71.8486 57.4599 71.8647 57.7166 71.4024 61.1906C70.8777 65.1308 70.9607 65.6503 72.1141 65.6503C73.2926 65.6503 73.6658 64.8391 74.1812 61.1535C74.9812 55.4367 74.2691 54.4413 69.1395 54.1052C66.6759 53.944 66.0468 54.0213 65.8598 54.5086ZM78.4451 54.2398C78.302 54.3833 78.1847 54.9233 78.1847 55.4408C78.1847 56.2827 78.3693 56.381 79.9491 56.381C81.8276 56.381 82.8791 57.1342 82.474 58.1893C82.3136 58.6076 81.6753 58.7991 80.44 58.7991C77.9724 58.7991 76.7234 59.3536 75.9875 60.7767C75.169 62.3597 75.2 63.3439 76.1032 64.4594C76.7339 65.2384 77.313 65.3964 80.0326 65.5322C81.7869 65.6197 83.4312 65.5459 83.6859 65.3686C83.941 65.1909 84.4278 63.1694 84.768 60.8762C85.4184 56.4906 85.2186 55.0805 83.8733 54.563C82.8988 54.1882 78.7441 53.9407 78.4451 54.2398ZM102.265 54.189C102.099 54.3603 101.963 54.9233 101.963 55.4408C101.963 56.2827 102.147 56.381 103.727 56.381C105.572 56.381 106.658 57.131 106.272 58.1385C106.133 58.5008 105.189 58.7604 103.591 58.8761C100.734 59.0824 99.644 59.8892 99.2922 62.0566C99.1241 63.092 99.2733 63.709 99.8701 64.4457C100.583 65.3267 101.048 65.4561 103.974 65.5891C105.789 65.6717 107.432 65.5814 107.625 65.3884C107.818 65.1957 108.264 63.2419 108.618 61.0463C109.299 56.8146 109.056 55.1026 107.702 54.5831C106.59 54.1568 102.579 53.8658 102.265 54.189ZM113.802 54.542C112.242 55.2211 111.232 56.6127 111.232 58.0829C111.232 59.2762 112.465 60.8141 113.422 60.8141C114.71 60.8141 116.052 61.5976 115.816 62.2118C115.645 62.6583 114.991 62.8292 113.455 62.8292C111.191 62.8292 110.245 63.437 110.506 64.7242C110.632 65.3444 111.049 65.4395 113.402 65.3839C115.791 65.3275 116.299 65.1768 117.286 64.2317C119.667 61.9494 119.102 59.3327 116.068 58.5964C113.376 57.9427 113.643 57.0174 116.568 56.8646C118.406 56.7687 118.972 56.5756 119.32 55.9264C120.089 54.4892 119.511 53.9613 117.189 53.9786C116.019 53.9875 114.494 54.241 113.802 54.542ZM57.918 56.9577C57.5766 57.2991 57.0999 58.4988 56.8585 59.6236C56.3317 62.0808 56.7774 63.2322 58.2557 63.2322C59.7674 63.2322 60.9011 61.1374 60.7629 58.5976C60.6629 56.7558 60.5626 56.572 59.5961 56.46C59.0142 56.3923 58.2593 56.6164 57.918 56.9577ZM78.828 60.9375C78.3854 61.2611 78.1618 61.8434 78.2472 62.4488C78.3677 63.3028 78.597 63.4337 79.9693 63.4337C81.3774 63.4337 81.587 63.304 81.8667 62.2594C82.0392 61.6133 82.0871 60.933 81.9723 60.7481C81.6511 60.2278 79.632 60.3495 78.828 60.9375ZM102.356 61.2264C101.171 62.4113 101.905 63.6352 103.8 63.6352C104.954 63.6352 105.28 63.4414 105.616 62.5584C105.841 61.966 105.933 61.2405 105.82 60.9463C105.505 60.1254 103.277 60.3055 102.356 61.2264Z" fill="white"/>
</svg>
